# xmcd
#
# Track frame offsets: 
#        183
#        12885
#        26790
#        38260
#        50750
#        77010
#        92368
#        103913
#        117323
#        129520
#
# Disc length: 1883 seconds
#
# Revision: 1
# Processed by: cddbd v1.5.2PL0 Copyright (c) Steve Scherf et al.
# Submitted via: ExactAudioCopyFreeDBPlugin 1.0
#
DISCID=7407590a
DTITLE=King Curtis - Enjoy Records:  The Best of King Curtis
DYEAR=1989
DGENRE=Rhythm and Blues
TTITLE0=Soul Twist
TTITLE1=Big Dipper
TTITLE2=Camp Meeting
TTITLE3=Groovin' with the King
TTITLE4=Midnight Blue
TTITLE5=What I Say (vocal)
TTITLE6=What I Say (instrumental)
TTITLE7=I Know (vocal)
TTITLE8=Sach O' Woe
TTITLE9=Hot Potatoes
EXTD=
EXTT0=
EXTT1=
EXTT2=
EXTT3=
EXTT4=
EXTT5=
EXTT6=
EXTT7=
EXTT8=
EXTT9=
PLAYORDER=
